<svg xmlns="http://www.w3.org/2000/svg" width="500" height="500">
	<style>
		circle {
			transform-origin: 250px 250px;
		}
	</style>

	<defs>
		<radialGradient id="gradient" r="1">
			<stop offset="20%" stop-color="white"/>
			<stop offset="100%" stop-color="black"/>
		</radialGradient>

		<mask id="mask">
			<rect x="0" y="0" width="500" height="500" fill="url(#gradient)"/>
		</mask>
	</defs>

	<g mask="url(#mask)">
		<circle cx="40" cy="250" r="40" fill="black"/>
		<circle cx="40" cy="250" r="40" fill="black" transform="rotate(20)"/>
		<circle cx="40" cy="250" r="40" fill="black" transform="rotate(40)"/>
		<circle cx="40" cy="250" r="40" fill="black" transform="rotate(60)"/>
		<circle cx="40" cy="250" r="40" fill="black" transform="rotate(80)"/>
		<circle cx="40" cy="250" r="40" fill="black" transform="rotate(100)"/>
		<circle cx="40" cy="250" r="40" fill="black" transform="rotate(120)"/>
		<circle cx="40" cy="250" r="40" fill="black" transform="rotate(140)"/>
		<circle cx="40" cy="250" r="40" fill="black" transform="rotate(160)"/>
		<circle cx="40" cy="250" r="40" fill="black" transform="rotate(180)"/>
		<circle cx="40" cy="250" r="40" fill="black" transform="rotate(200)"/>
		<circle cx="40" cy="250" r="40" fill="black" transform="rotate(220)"/>
		<circle cx="40" cy="250" r="40" fill="black" transform="rotate(240)"/>
		<circle cx="40" cy="250" r="40" fill="black" transform="rotate(260)"/>
		<circle cx="40" cy="250" r="40" fill="black" transform="rotate(280)"/>
		<circle cx="40" cy="250" r="40" fill="black" transform="rotate(300)"/>
		<circle cx="40" cy="250" r="40" fill="black" transform="rotate(320)"/>
		<circle cx="40" cy="250" r="40" fill="black" transform="rotate(340)"/>

		<circle cx="250" cy="250" r="200" fill="black"/>
	</g>
</svg>